<svg width="34" height="35" viewBox="0 0 34 35" fill="none" xmlns="http://www.w3.org/2000/svg">
<g clip-path="url(#clip0_211_2056)">
<path d="M31.7852 10.2308C31.7852 10.2544 31.7852 10.2838 31.779 10.3014C31.7484 10.5309 31.7484 10.7604 31.7667 10.9958C31.779 11.0546 31.7913 11.1135 31.8403 11.1605C31.92 11.2488 32.0426 11.2311 32.0917 11.1252C32.1162 11.0723 32.1162 11.0193 32.1039 10.9664C32.0426 10.7428 32.0304 10.5074 32.0243 10.2779C32.0243 10.2661 32.0243 10.2485 32.0243 10.2308C32.0917 10.2249 32.153 10.2191 32.2082 10.2191C32.2511 10.2132 32.2879 10.2073 32.3186 10.1896C32.4105 10.1426 32.4105 10.0425 32.3124 9.99546C32.2756 9.97781 32.2266 9.97192 32.1837 9.97192C32.0304 9.97781 31.8771 9.97781 31.7238 9.97781C31.6687 9.97781 31.6135 9.9837 31.5583 9.98958C31.5276 9.99546 31.4909 9.99546 31.4664 10.0131C31.4234 10.0308 31.3989 10.0602 31.3989 10.1014C31.405 10.1426 31.4234 10.1661 31.4664 10.1838C31.4909 10.2014 31.5215 10.2073 31.5522 10.2073C31.6257 10.2132 31.7055 10.2249 31.7852 10.2308ZM33.4711 10.5015C33.4711 10.5074 33.4772 10.5133 33.4772 10.5133C33.5018 10.6721 33.5263 10.8251 33.5447 10.9781C33.5508 11.0311 33.557 11.0782 33.5937 11.1193C33.6734 11.2194 33.7961 11.2076 33.8512 11.1017C33.8758 11.0487 33.8819 10.9958 33.8696 10.9369C33.8328 10.7604 33.8144 10.5839 33.7777 10.4132C33.7531 10.3073 33.7225 10.2073 33.6918 10.1131C33.6734 10.0543 33.6305 10.0131 33.557 10.0072C33.4834 9.99546 33.4282 10.0308 33.3975 10.0837C33.3608 10.1308 33.3301 10.1779 33.3056 10.2308C33.2627 10.325 33.2259 10.4191 33.1769 10.5074C33.1707 10.5309 33.1646 10.5486 33.1523 10.5662C33.1462 10.5545 33.1401 10.5486 33.1401 10.5486C33.0603 10.4015 32.9868 10.2544 32.9071 10.1131C32.8948 10.1014 32.8887 10.0896 32.8826 10.0778C32.8458 10.0249 32.8029 9.99546 32.7354 9.99546C32.6741 10.0013 32.625 10.0367 32.5944 10.0896C32.5821 10.1131 32.5821 10.1308 32.576 10.1543C32.5515 10.3426 32.5208 10.5309 32.4963 10.7192C32.484 10.8251 32.4779 10.931 32.4779 11.037C32.4718 11.0605 32.4779 11.0899 32.4902 11.1135C32.5025 11.1605 32.5392 11.19 32.5883 11.1958C32.6496 11.2017 32.6925 11.1841 32.7109 11.137C32.7293 11.1017 32.7354 11.0723 32.7416 11.0429C32.7661 10.9369 32.7845 10.8369 32.8029 10.7369C32.8151 10.678 32.8212 10.631 32.8397 10.5662C32.8519 10.5898 32.8641 10.6074 32.8764 10.6251C32.9316 10.6957 32.9868 10.7663 33.0542 10.8251C33.1217 10.8722 33.1769 10.8663 33.232 10.8134C33.2443 10.8016 33.2504 10.7957 33.2627 10.7839C33.3179 10.7016 33.3853 10.6192 33.4405 10.5368C33.4527 10.525 33.4589 10.5133 33.4711 10.5015Z" fill="#3A3B7B"/>
<path d="M19.3449 10.3465C19.3023 10.4583 19.2941 10.5389 19.3138 10.6059C19.3355 10.6969 19.392 10.7267 19.4685 10.7036C20.1886 10.5327 21.7677 11.0178 22.3523 11.153C22.4902 11.1814 22.6024 11.0105 22.5083 10.8574C22.371 10.7091 20.7926 10.074 20.1903 10.0394C19.9543 10.0266 19.5323 9.9685 19.3449 10.3465Z" fill="#3A3B7B"/>
<path d="M25.5161 8.29086C25.5929 8.33338 25.6358 8.37393 25.657 8.41925C25.6885 8.47869 25.6719 8.51981 25.6189 8.54079C25.1429 8.76377 24.5094 9.72371 24.2538 10.0548C24.1918 10.1309 24.0488 10.0867 24.0272 9.96144C24.0317 9.81983 24.5931 8.77808 24.9065 8.49434C25.0297 8.38356 25.2331 8.1662 25.5161 8.29086Z" fill="#3A3B7B"/>
<path d="M21.7254 7.81823C21.8176 7.75154 21.9134 7.72817 21.9623 7.77151C22.6805 8.36101 23.0614 9.29454 23.2972 10.1492C23.3061 10.1691 23.3067 10.1976 23.2996 10.2274C23.2966 10.2529 23.2772 10.2798 23.2464 10.3007C23.2135 10.3236 23.1852 10.3306 23.1719 10.3108C22.8571 9.89993 21.0593 8.30115 21.7254 7.81823Z" fill="#3A3B7B"/>
<path d="M6.51689 18.0386C6.68901 17.9156 6.87615 17.8132 7.07417 17.7338C7.28135 17.6769 7.50218 17.6863 7.70328 17.7606C7.90434 17.835 8.07479 17.9701 8.18873 18.1456C8.29066 18.3207 8.33053 18.5228 8.30239 18.7215C8.27426 18.9202 8.17962 19.1048 8.03268 19.2474C7.91878 19.363 7.78946 19.4637 7.64818 19.547C7.01846 19.9374 6.38313 20.3065 5.74783 20.6969C5.61783 20.7946 5.47993 20.8823 5.33543 20.959C5.11565 21.0642 4.86447 21.0924 4.62533 21.0387C4.38619 20.985 4.17413 20.8527 4.02581 20.6649C3.91494 20.5318 3.82137 20.3863 3.74717 20.2316C3.1453 19.0174 2.52115 17.8086 1.94157 16.5731C1.67407 16.0382 1.45673 15.4231 1.24496 14.8294C1.15334 14.6569 1.13545 14.4569 1.19509 14.2719C1.25474 14.087 1.38722 13.9316 1.56436 13.839C1.74149 13.7463 1.9493 13.7236 2.14359 13.7757C2.33788 13.8279 2.50332 13.9507 2.60473 14.118C2.91644 14.5156 3.19236 14.9379 3.42952 15.3803C4.03138 16.4501 4.60539 17.5198 5.18497 18.5574C5.21872 18.6148 5.25593 18.6701 5.29642 18.7232C5.73265 18.5472 6.14295 18.317 6.51689 18.0386Z" fill="#3A3B7B"/>
<path d="M12.7398 17.6654C11.3634 19.2112 9.05619 18.8207 7.89704 16.831C7.07224 15.4189 6.92736 13.0869 8.72184 11.616C9.10503 11.3081 9.56323 11.0983 10.0537 11.0063C10.6551 10.9235 11.2684 11.0253 11.8059 11.2972C12.3433 11.5691 12.7775 11.997 13.0464 12.52C14.0272 14.2315 13.8879 16.4138 12.7398 17.6654ZM12.1826 14.0604C12.0363 13.6398 11.743 13.2807 11.3522 13.0441C11.1311 12.8928 10.8624 12.8193 10.5914 12.8359C10.3204 12.8524 10.0636 12.9581 9.86426 13.135C9.06736 13.8143 8.90014 15.4243 9.47971 16.3817C9.5536 16.5378 9.66208 16.6766 9.79766 16.7882C9.93324 16.8999 10.0926 16.9818 10.2646 17.0281C10.4366 17.0745 10.617 17.0842 10.7934 17.0567C10.9697 17.029 11.1376 16.9648 11.2854 16.8684C11.7173 16.547 12.0343 16.1043 12.192 15.6021C12.3499 15.0998 12.3407 14.5628 12.1659 14.0657L12.1826 14.0604Z" fill="#3A3B7B"/>
<path d="M18.3572 14.7345C18.2163 14.7636 18.0707 14.7653 17.9291 14.7396C17.7875 14.7138 17.6526 14.6612 17.5325 14.5847C17.4274 14.527 17.3369 14.4477 17.2675 14.3524C17.1982 14.2571 17.1518 14.1483 17.1315 14.0337C17.1113 13.9192 17.1177 13.8017 17.1504 13.6898C17.1831 13.5779 17.2413 13.4744 17.3207 13.3866C17.4591 13.2103 17.6554 13.084 17.878 13.0283C18.4591 12.8664 19.0573 12.7677 19.6613 12.7341C19.794 12.7193 19.9285 12.7301 20.0568 12.7658C20.1851 12.8016 20.3047 12.8615 20.4085 12.9423C20.5123 13.023 20.5983 13.1228 20.6614 13.2359C20.7245 13.3489 20.7634 13.4729 20.7759 13.6006C20.95 14.2277 20.9691 14.8853 20.8316 15.5208C20.3301 17.5747 18.6025 18.2807 16.6631 17.6228C16.1187 17.4469 15.6414 17.1191 15.2922 16.6814C14.8264 16.1543 14.4962 15.5296 14.3281 14.8575C14.1919 14.2591 14.2068 13.6381 14.3716 13.0463C14.5364 12.4545 14.8463 11.9092 15.2755 11.4557C15.6827 10.9629 16.2113 10.5751 16.8136 10.3272C17.1942 10.1258 17.6395 10.0686 18.0619 10.1667C18.1577 10.1922 18.2447 10.2418 18.3138 10.3103C18.3829 10.3789 18.4317 10.464 18.455 10.5568C18.4783 10.6496 18.4753 10.7466 18.4464 10.8379C18.4174 10.9292 18.3636 11.0114 18.2904 11.076C18.1512 11.1969 18 11.3044 17.839 11.3969C17.3435 11.6997 16.9124 12.0899 16.5684 12.5469C16.3429 12.8425 16.1876 13.1821 16.1134 13.5415C16.0393 13.901 16.0481 14.2717 16.1393 14.6275C16.2657 15.1127 16.5461 15.5483 16.9417 15.8738C18.1678 16.9435 19.7616 15.9112 19.483 14.451C19.0762 14.5473 18.7195 14.6489 18.3572 14.7345Z" fill="#3A3B7B"/>
<path d="M25.8473 17.7511C24.0361 18.8209 21.9742 17.7511 21.5227 15.5047C21.194 13.9001 21.8181 11.6536 24.0027 10.7978C24.4675 10.6197 24.9716 10.5571 25.4683 10.616C26.0651 10.7208 26.6126 11.0028 27.0335 11.4221C27.4544 11.8415 27.7276 12.377 27.8145 12.9534C28.1823 14.8628 27.3464 16.9007 25.8473 17.7511ZM26.4771 14.1514C26.4765 13.7071 26.3127 13.2772 26.0145 12.9373C25.8551 12.7271 25.6246 12.5765 25.3624 12.5111C25.1002 12.4458 24.8225 12.4697 24.5767 12.579C23.5959 12.9854 22.9048 14.4617 23.1556 15.5475C23.1748 15.7179 23.2324 15.8822 23.3247 16.029C23.4169 16.1757 23.5414 16.3014 23.6895 16.3972C23.8375 16.4929 24.0056 16.5565 24.182 16.5834C24.3584 16.6103 24.5387 16.6 24.7104 16.553C25.2289 16.3792 25.6778 16.0543 25.9945 15.6238C26.3112 15.1932 26.4799 14.6785 26.4771 14.1514Z" fill="#3A3B7B"/>
<path d="M29.646 18.2005C29.6187 18.3963 29.5115 18.5736 29.3479 18.6935C29.1843 18.8133 28.9779 18.8659 28.7739 18.8397C28.5699 18.8134 28.3852 18.7105 28.2603 18.5535C28.1354 18.3966 28.0806 18.1984 28.108 18.0026C28.1353 17.8068 28.2426 17.6295 28.4061 17.5097C28.5697 17.3898 28.7761 17.3372 28.9801 17.3634C29.1841 17.3897 29.3688 17.4926 29.4937 17.6496C29.6186 17.8066 29.6734 18.0048 29.646 18.2005ZM29.1612 10.9851C29.2672 10.8297 29.4227 10.7114 29.6045 10.6478C29.7863 10.5842 29.9846 10.5787 30.1699 10.6321C30.3583 10.6773 30.5247 10.7833 30.6414 10.9323C30.7581 11.0813 30.8179 11.2642 30.8108 11.4504C30.7862 11.7492 30.7397 12.0459 30.6715 12.3383C30.4876 13.3278 30.3092 14.3173 30.1142 15.2962C30.025 15.6866 29.908 16.061 29.7798 16.4568C29.7352 16.5805 29.6607 16.6923 29.5625 16.7831C29.5014 16.8514 29.4234 16.9037 29.3356 16.9353C29.2479 16.967 29.1532 16.9768 29.0604 16.964C28.9677 16.9512 28.8797 16.9162 28.8048 16.8621C28.7299 16.8081 28.6704 16.7367 28.6318 16.6547C28.5656 16.5076 28.5296 16.3496 28.5259 16.1894C28.5259 15.5261 28.5259 14.8576 28.5705 14.189C28.6463 13.2348 28.7953 12.2873 29.0163 11.3542C29.0424 11.2291 29.0914 11.1096 29.1612 11.0012V10.9851Z" fill="#3A3B7B"/>
<path fill-rule="evenodd" clip-rule="evenodd" d="M4.16231 22.4985C4.09651 22.6394 4.07847 22.7966 4.11062 22.9479C4.13201 23.1473 4.179 23.3434 4.2505 23.5318C4.33978 23.7624 4.43968 23.9905 4.56285 24.2717C4.59118 24.3364 4.62078 24.4039 4.65176 24.4749C4.81787 24.8558 5.02629 25.3426 5.3043 26.047C5.38299 26.2471 5.45287 26.4489 5.52323 26.6521C5.55166 26.7341 5.58019 26.8165 5.60939 26.899C5.71406 27.1924 5.89416 27.4561 6.13289 27.665C6.23426 27.7798 6.36872 27.8635 6.51949 27.9053C6.6732 27.948 6.83669 27.9453 6.98877 27.8976C7.14084 27.8498 7.27442 27.7593 7.37214 27.6376C7.46795 27.5184 7.52492 27.3747 7.536 27.2246C7.59816 26.9322 7.57694 26.629 7.47449 26.3471C7.3119 25.879 7.12668 25.4102 6.9131 24.9517L6.91212 24.9497C6.56076 24.2323 6.2036 23.52 5.82954 22.8073L5.82674 22.8023C5.71724 22.6166 5.57493 22.4507 5.40622 22.3118C5.29668 22.1879 5.1456 22.1043 4.97875 22.0755C4.80835 22.0461 4.6326 22.0757 4.48289 22.1592C4.34126 22.2368 4.22899 22.3556 4.16231 22.4985Z" fill="#3A3B7B"/>
<path fill-rule="evenodd" clip-rule="evenodd" d="M9.52889 20.732C8.97797 20.5951 8.4026 20.5751 7.84289 20.6736C7.40936 20.7145 6.98299 20.8105 6.68692 21.0006C6.53633 21.0974 6.41459 21.2216 6.34686 21.3795C6.27877 21.5383 6.27008 21.7199 6.32588 21.9222C6.42776 22.2928 6.56007 22.6531 6.69192 23.0123L6.71328 23.0705L6.71379 23.0717C7.11077 24.1152 7.51153 25.1551 7.91594 26.1914C7.96309 26.3547 8.02978 26.5123 8.11466 26.6609L8.11625 26.6636C8.22837 26.8482 8.37217 27.0133 8.54159 27.152C8.62632 27.2283 8.73111 27.281 8.84472 27.3046C8.95946 27.3284 9.07878 27.3215 9.18968 27.2846C9.30063 27.2478 9.39887 27.1824 9.47374 27.0956C9.5474 27.0102 9.59563 26.9074 9.61334 26.7979C9.68644 26.5005 9.66302 26.1888 9.54618 25.9045C9.50973 25.8089 9.48113 25.7111 9.45098 25.6082C9.44093 25.5739 9.43075 25.539 9.42 25.5034C10.3457 25.1561 11.3307 24.6892 11.677 23.6028C11.8127 23.2274 11.824 22.8208 11.7094 22.439C11.5947 22.0567 11.3594 21.7178 11.0359 21.4691C10.5956 21.1209 10.0812 20.8693 9.52889 20.732ZM8.00179 22.0645C8.02002 22.0595 8.03838 22.0548 8.0568 22.0504C8.65946 21.9595 9.27605 22.0807 9.79304 22.3915C10.0209 22.5436 10.1142 22.7126 10.1302 22.8752C10.1468 23.0426 10.0834 23.224 9.95597 23.3983C9.71523 23.7277 9.27591 23.9914 8.87907 24.0405C8.58978 23.4011 8.29599 22.7358 8.00179 22.0645Z" fill="#3A3B7B"/>
<path d="M13.2018 19.5616C13.8579 19.2708 14.6706 19.2206 15.3065 19.4251C15.4667 19.4698 15.6057 19.5667 15.6996 19.699C15.793 19.8306 15.8361 19.9891 15.8217 20.1475C15.8208 20.2504 15.7945 20.3516 15.745 20.4429C15.6946 20.5358 15.6216 20.6158 15.5323 20.676C15.4429 20.7361 15.3398 20.7748 15.2316 20.7886C15.1233 20.8024 15.0133 20.7911 14.9106 20.7554L14.9028 20.7527L14.8955 20.749C14.8429 20.7226 14.7871 20.7027 14.7294 20.6898L14.7258 20.689C14.2784 20.575 13.8564 20.7639 13.7023 20.9961C13.6288 21.1068 13.6196 21.2186 13.6809 21.3203C13.7464 21.4291 13.9073 21.5513 14.2327 21.6384C14.3222 21.662 14.4139 21.6847 14.507 21.7078C14.7643 21.7718 15.0317 21.8382 15.2903 21.9303L15.2913 21.9307C16.4843 22.3663 16.9285 23.2686 16.7764 24.1172C16.626 24.9564 15.8957 25.7202 14.7976 25.9004C14.398 25.9854 13.9821 25.9688 13.5912 25.8523C13.1993 25.7355 12.846 25.5223 12.5665 25.2338L12.5592 25.2263C12.4709 25.1176 12.4116 24.9899 12.3853 24.8545C12.361 24.7322 12.3738 24.6059 12.4219 24.4903C12.4698 24.3754 12.5507 24.276 12.6552 24.2036C12.7655 24.1214 12.8986 24.0722 13.0378 24.0619C13.1765 24.0517 13.3154 24.0806 13.4372 24.1451C13.5589 24.2015 13.6721 24.2735 13.7737 24.3591L13.7757 24.3607C13.9554 24.5185 14.1729 24.5596 14.3814 24.5215C14.593 24.4829 14.7919 24.3627 14.9199 24.2033C15.047 24.0449 15.0981 23.8567 15.0375 23.674C14.9765 23.49 14.7933 23.2838 14.3907 23.1114C14.2854 23.0685 14.1763 23.034 14.0628 23.0003C14.0321 22.9912 14.001 22.9822 13.9695 22.973C13.8856 22.9485 13.7992 22.9233 13.7145 22.8956C13.6562 22.8765 13.5983 22.8584 13.541 22.8405C13.3844 22.7915 13.2317 22.7438 13.0848 22.6798C12.765 22.5753 12.4887 22.3747 12.297 22.1075C12.1046 21.8393 12.0077 21.5186 12.0209 21.1932C12.0219 20.4003 12.5422 19.8541 13.2018 19.5616Z" fill="#3A3B7B"/>
<path d="M21.5196 19.4771C21.3923 19.4175 21.2517 19.3892 21.1102 19.3947C20.9688 19.4003 20.831 19.4396 20.7093 19.5091C20.5884 19.5781 20.4872 19.6747 20.4147 19.7904C20.3482 19.8878 20.3021 19.9967 20.2792 20.1111C20.2562 20.2253 20.2568 20.3428 20.2808 20.4568C20.3045 20.6033 20.3307 20.7458 20.3567 20.8863C20.3996 21.1189 20.4414 21.3462 20.469 21.578L20.47 21.5839C20.5328 21.9473 20.5656 22.315 20.5686 22.6833L20.5689 22.6886C20.5903 23.0864 20.4491 23.4765 20.1754 23.7761L20.1711 23.7814C20.082 23.8909 19.963 23.9745 19.8272 24.0228C19.6915 24.0711 19.5445 24.0822 19.4026 24.0549C19.2606 24.0276 19.1294 23.9629 19.0236 23.868C18.9178 23.7732 18.8415 23.6516 18.8034 23.5176C18.7221 23.2352 18.675 22.9446 18.663 22.6518L18.8019 20.5294C18.804 20.5017 18.8063 20.4733 18.8087 20.4445C18.814 20.3801 18.8194 20.3144 18.8217 20.2532C18.8249 20.1631 18.8221 20.0704 18.8003 19.9827C18.7779 19.893 18.7353 19.8078 18.6598 19.7351C18.585 19.6632 18.484 19.6102 18.357 19.5741C18.1273 19.5103 17.9331 19.5123 17.7712 19.5782C17.6093 19.6442 17.4983 19.7666 17.4198 19.908C17.3419 20.0482 17.2919 20.2141 17.254 20.3804C17.2259 20.5038 17.2033 20.6333 17.1819 20.7565C17.1745 20.799 17.1672 20.8407 17.1599 20.8812L17.1597 20.8824C17.0449 21.5585 17.0107 22.2449 17.0578 22.9284C17.0666 23.2977 17.1469 23.6623 17.2946 24.0035C17.4612 24.4438 17.763 24.8252 18.1601 25.0975C18.558 25.3703 19.0329 25.5206 19.5219 25.5286C20.0108 25.5365 20.4908 25.4017 20.8981 25.142C21.3048 24.8826 21.62 24.5109 21.802 24.076C22.0566 23.5221 22.1761 22.9196 22.1514 22.3146C22.1365 21.8729 22.1114 21.4278 22.0865 20.9849C22.0743 20.7677 22.0621 20.5509 22.0511 20.3355C22.0456 20.1195 21.9714 19.9102 21.8384 19.7358C21.7561 19.6256 21.6465 19.5367 21.5196 19.4771Z" fill="#3A3B7B"/>
<path d="M26.0222 22.8051C26.0093 22.8208 25.9957 22.8371 25.9815 22.854C25.8781 22.2811 25.7822 21.7084 25.6861 21.1348C25.6517 20.929 25.617 20.7223 25.5822 20.5162L25.5783 20.4932L25.5656 20.4734C25.5416 20.436 25.5392 20.3993 25.5392 20.3212V20.3121L25.5378 20.3032C25.5118 20.1417 25.4357 19.9915 25.3195 19.8721C25.2036 19.7531 25.053 19.6702 24.8874 19.6342C24.7221 19.5951 24.5484 19.6037 24.3882 19.659C24.2283 19.7142 24.089 19.8134 23.9876 19.9442C23.9033 20.0445 23.8342 20.1558 23.7824 20.2747C23.6648 20.5309 23.5463 20.7877 23.4274 21.0452L23.4253 21.0497C23.1285 21.6926 22.8297 22.3398 22.5395 22.992L22.5386 22.9941C22.3605 23.4171 22.2135 23.8627 22.067 24.307C22.0377 24.3957 22.0085 24.4843 21.979 24.5727C21.9261 24.7129 21.9029 24.8619 21.9109 25.0107C21.9012 25.144 21.9345 25.277 22.0062 25.3916C22.0793 25.5086 22.1888 25.6006 22.3192 25.6548C22.4574 25.713 22.612 25.7253 22.7584 25.6899C22.9045 25.6545 23.0343 25.5736 23.1272 25.4598C23.2459 25.3197 23.3481 25.1668 23.4313 25.0049C23.6771 24.5223 23.912 24.0339 24.1458 23.5476C24.2363 23.3595 24.3242 23.1911 24.4242 23.0076C24.4311 23.0302 24.4381 23.0523 24.4454 23.0744C24.5502 23.5173 24.7271 23.9416 24.9697 24.3317C25.0155 24.4143 25.0795 24.4865 25.1571 24.5433C25.2356 24.6009 25.3262 24.6412 25.4226 24.6617C25.519 24.6822 25.619 24.6823 25.7154 24.662C25.8117 24.6417 25.9026 24.6013 25.9812 24.5441L26.1367 24.4324L27.3436 23.4567L27.2722 23.8932C27.1742 24.4932 27.077 25.0883 26.9737 25.6834C26.9062 25.9472 26.9063 26.2228 26.974 26.4865C27.0034 26.6349 27.0782 26.7715 27.1888 26.8789C27.3004 26.9873 27.4433 27.0608 27.5991 27.0902C27.7548 27.1195 27.9161 27.1033 28.0621 27.0435C28.2059 26.9846 28.3283 26.8862 28.4138 26.7607C28.6128 26.5238 28.7367 26.2369 28.7707 25.9342C28.8219 25.5068 28.8798 25.0736 28.9377 24.6405C29.0044 24.1414 29.0711 23.6423 29.1274 23.1528L29.1276 23.1513C29.1818 22.6155 29.208 22.0775 29.2062 21.5392C29.2181 21.3691 29.1739 21.1996 29.0799 21.0548C28.9855 20.9094 28.8458 20.7964 28.6806 20.7318C28.5088 20.6568 28.3165 20.6368 28.132 20.6747C27.9486 20.7123 27.7827 20.8051 27.6581 20.9394C27.4355 21.137 27.2267 21.3485 27.033 21.5724L27.0317 21.5739C26.8202 21.8268 26.6102 22.0847 26.4015 22.3409C26.2746 22.4967 26.1481 22.6521 26.0222 22.8051Z" fill="#3A3B7B"/>
</g>
<defs>
<clipPath id="clip0_211_2056">
<rect width="32.7153" height="20.186" fill="white" transform="translate(1.16046 7.74951)"/>
</clipPath>
</defs>
</svg>
