<svg width="39" height="35" viewBox="0 0 39 35" fill="none" xmlns="http://www.w3.org/2000/svg">
<g clip-path="url(#clip0_211_2052)">
<path d="M38.5803 14.4803C38.5842 14.4513 38.5842 14.4219 38.5803 14.3929C38.584 14.3692 38.584 14.3451 38.5803 14.3214L38.2966 12.2801C38.2557 12.0359 38.1463 11.8076 37.9807 11.6208L37.932 11.5652L37.843 11.4779L32.9332 7.33167L33.0709 7.46671C32.9582 7.33454 32.8168 7.22882 32.6569 7.15734C32.4971 7.08586 32.3229 7.05043 32.1473 7.05367H30.6565C30.4141 7.04897 30.1772 7.12453 29.984 7.26814C29.7812 7.12539 29.537 7.05022 29.2873 7.05367H27.7965C27.601 7.05056 27.4081 7.09814 27.2374 7.19159C27.0667 7.28504 26.9242 7.42105 26.8243 7.58585C26.6703 7.82122 26.6125 8.10482 26.6622 8.38014L26.8486 9.66688C26.7251 9.59827 26.5854 9.56267 26.4435 9.56363H19.2246C18.9656 9.56523 18.7126 9.63965 18.4954 9.77808C18.2855 9.90694 18.1169 10.0914 18.0093 10.3103L17.4503 9.84163C17.2303 9.64204 16.9398 9.53386 16.6401 9.5398H5.31357C5.05365 9.54444 4.7995 9.61563 4.57631 9.74632C4.27097 9.92153 4.04719 10.2064 3.95245 10.5406L0.355175 22.3358C0.287961 22.5302 0.281349 22.7398 0.336186 22.9378C0.391022 23.1359 0.504824 23.3135 0.663053 23.4478C0.704282 23.4821 0.747573 23.5139 0.792687 23.5431C0.792687 23.5431 0.719758 23.4954 0.679248 23.4558L5.58906 27.6099C5.79675 27.7974 6.0683 27.9021 6.35059 27.9038H17.7663C18.027 27.8971 18.2813 27.8232 18.5036 27.6893C18.6293 27.622 18.7417 27.5332 18.8357 27.4272L18.8763 27.3716L18.9411 27.2922L18.9897 27.2048L19.5244 27.6576C19.7291 27.8376 19.9948 27.9366 20.2698 27.9356H31.7097C31.9702 27.927 32.224 27.8532 32.447 27.7211C32.5699 27.6496 32.6817 27.5613 32.7792 27.459L32.8197 27.4034L32.8845 27.324C32.919 27.2737 32.9489 27.2205 32.9736 27.1651C33.0001 27.1169 33.0218 27.0664 33.0385 27.0142L36.3198 16.2436V16.1483C36.3238 16.1113 36.3238 16.0741 36.3198 16.0371V15.9656C36.3237 15.9419 36.3237 15.9178 36.3198 15.8941C36.3234 15.8439 36.3234 15.7935 36.3198 15.7432H37.373C37.4646 15.7514 37.5569 15.7514 37.6485 15.7432H37.7214C37.7807 15.7258 37.8378 15.7018 37.8916 15.6717H37.9726L38.1184 15.5605L38.1832 15.5129L38.2966 15.3699V15.3223L38.3777 15.1872C38.3731 15.1609 38.3731 15.1341 38.3777 15.1078C38.3734 15.0949 38.3734 15.081 38.3777 15.0681C38.3949 15.0215 38.4085 14.9737 38.4182 14.9251C38.4144 14.9094 38.4144 14.8931 38.4182 14.8774C38.4142 14.8538 38.4142 14.8296 38.4182 14.8059C38.4182 14.8059 38.5803 14.4962 38.5803 14.4803Z" fill="black"/>
<path d="M16.9723 10.4453C17.0153 10.4835 17.0453 10.5336 17.0584 10.589C17.0714 10.6444 17.0668 10.7023 17.0452 10.7551L13.4561 22.5424C13.4109 22.671 13.3184 22.7786 13.1968 22.8442C13.0978 22.9091 12.9833 22.9474 12.8646 22.9554H1.45705C1.35963 22.9508 1.26733 22.9112 1.19778 22.8442C1.15641 22.8067 1.12737 22.7579 1.11438 22.7042C1.10139 22.6504 1.10505 22.5941 1.12487 22.5424L4.72214 10.7551C4.76358 10.6248 4.85314 10.5143 4.97329 10.4453C5.07388 10.3851 5.18787 10.3497 5.30548 10.3421H16.713C16.8097 10.343 16.9024 10.3799 16.9723 10.4453ZM11.0173 20.1674L13.1644 13.13H7.15274L5.0138 20.1674H11.0173ZM27.8613 10.5645C27.9002 10.6088 27.9489 10.644 28.0036 10.6673C28.0583 10.6907 28.1177 10.7017 28.1773 10.6995H29.66C29.7164 10.7 29.772 10.6865 29.8217 10.6601C29.8713 10.6337 29.9132 10.5953 29.9435 10.5486C29.9698 10.5121 29.9885 10.4708 29.9982 10.4271C30.0079 10.3835 30.0086 10.3383 30.0002 10.2944L29.7086 8.19748C29.6808 8.10043 29.6309 8.01082 29.5628 7.93537C29.5238 7.89102 29.4752 7.85586 29.4205 7.83248C29.3658 7.8091 29.3064 7.79812 29.2468 7.80034H27.7641C27.7076 7.7998 27.652 7.81337 27.6024 7.83978C27.5528 7.86618 27.5108 7.90455 27.4805 7.95126C27.4238 8.06245 27.3995 8.13394 27.4238 8.19748L27.7236 10.2944C27.739 10.3965 27.7872 10.4911 27.8613 10.5645ZM32.5686 8.1816C32.5408 8.08454 32.4909 7.99493 32.4227 7.91948C32.3854 7.8753 32.3382 7.84014 32.2848 7.81672C32.2315 7.79331 32.1733 7.78226 32.1149 7.78445H30.6241C30.5686 7.7829 30.5136 7.79611 30.4651 7.82268C30.4166 7.84924 30.3764 7.88819 30.3486 7.93537C30.2947 8.00583 30.2714 8.09435 30.2838 8.1816L30.5836 10.2785C30.6024 10.3795 30.6501 10.4732 30.7213 10.5486C30.7609 10.5921 30.8097 10.6266 30.8643 10.6499C30.9188 10.6732 30.9778 10.6847 31.0373 10.6836H32.5281C32.5835 10.6843 32.638 10.6708 32.6863 10.6443C32.7347 10.6178 32.7751 10.5793 32.8035 10.5327C32.8317 10.4972 32.8514 10.4559 32.8612 10.4119C32.8711 10.3679 32.8707 10.3224 32.8602 10.2785L32.5686 8.1816ZM26.5569 11.3588L26.411 10.3262H19.2246C19.1118 10.3323 19.0026 10.3679 18.9086 10.4294C18.849 10.4613 18.797 10.5056 18.7565 10.559C18.7159 10.6125 18.6877 10.674 18.6737 10.7392L18.0742 12.709C18.0502 12.7583 18.042 12.8135 18.0507 12.8674C18.0594 12.9212 18.0845 12.9713 18.1228 13.0109C18.1911 13.0738 18.2803 13.1105 18.3739 13.1141H27.1079L24.9608 20.1516H16.2512C16.1389 20.1541 16.0295 20.1871 15.9353 20.2468C15.8207 20.3182 15.737 20.4285 15.7003 20.5566L15.0926 22.5265C15.0728 22.577 15.0676 22.6319 15.0776 22.6852C15.0876 22.7385 15.1124 22.788 15.1493 22.8283C15.2155 22.8955 15.3054 22.9352 15.4005 22.9395H26.8405C26.9588 22.9295 27.0728 22.8913 27.1726 22.8283C27.2923 22.7624 27.382 22.6546 27.4238 22.5265L30.7132 11.7559H27.0106C26.9519 11.757 26.8935 11.7463 26.8392 11.7245C26.7848 11.7026 26.7357 11.6701 26.6947 11.6288C26.6277 11.5568 26.5803 11.4694 26.5569 11.3746V11.3588Z" fill="white"/>
</g>
<defs>
<clipPath id="clip0_211_2052">
<rect width="38.2838" height="20.8821" fill="white" transform="translate(0.299408 7.05347)"/>
</clipPath>
</defs>
</svg>
