<svg width="37" height="35" viewBox="0 0 37 35" fill="none" xmlns="http://www.w3.org/2000/svg">
<g clip-path="url(#clip0_211_2076)">
<path d="M8.81751 10.5339C7.40398 10.5339 6.04836 11.0955 5.04885 12.095L1.78686 15.357C0.787349 16.3565 0.22583 17.7121 0.22583 19.1256C0.22583 22.0692 2.61202 24.4553 5.55554 24.4553C6.96907 24.4553 8.32469 23.8938 9.3242 22.8943L11.5805 20.6379C11.5805 20.6379 11.5806 20.638 11.5805 20.6379L18.1547 14.0638C18.6321 13.5864 19.2795 13.3182 19.9546 13.3182C21.0849 13.3182 22.0431 14.0548 22.3753 15.0742L24.4501 12.9994C23.5036 11.5169 21.8439 10.5339 19.9546 10.5339C18.5411 10.5339 17.1855 11.0955 16.186 12.095L7.35544 20.9255C6.87807 21.4029 6.23064 21.671 5.55554 21.671C4.14973 21.671 3.01011 20.5314 3.01011 19.1256C3.01011 18.4505 3.27828 17.8031 3.75564 17.3257L7.01761 14.0638C7.49498 13.5864 8.14241 13.3182 8.81751 13.3182C9.94779 13.3182 10.9059 14.0549 11.2382 15.0743L13.313 12.9994C12.3665 11.517 10.7068 10.5339 8.81751 10.5339Z" fill="#394149"/>
<path d="M18.4925 20.9255C18.0152 21.4029 17.3677 21.671 16.6926 21.671C15.5626 21.671 14.6044 20.9346 14.2721 19.9154L12.1974 21.9902C13.1439 23.4724 14.8035 24.4553 16.6926 24.4553C18.1062 24.4553 19.4618 23.8938 20.4613 22.8943L29.2918 14.0638C29.7692 13.5864 30.4166 13.3182 31.0917 13.3182C32.4976 13.3182 33.6372 14.4578 33.6372 15.8636C33.6372 16.5387 33.369 17.1862 32.8916 17.6635L29.6297 20.9255C29.1523 21.4029 28.5049 21.671 27.8298 21.671C26.6996 21.671 25.7414 20.9345 25.4092 19.9152L23.3344 21.99C24.2809 23.4724 25.9405 24.4553 27.8298 24.4553C29.2433 24.4553 30.5989 23.8938 31.5984 22.8943L34.8604 19.6323C35.8599 18.6328 36.4214 17.2772 36.4214 15.8636C36.4214 12.9201 34.0353 10.5339 31.0917 10.5339C29.6782 10.5339 28.3226 11.0955 27.3231 12.095L18.4925 20.9255Z" fill="#394149"/>
</g>
<defs>
<clipPath id="clip0_211_2076">
<rect width="36.1956" height="13.9214" fill="white" transform="translate(0.22583 10.5339)"/>
</clipPath>
</defs>
</svg>
