<svg width="34" height="35" viewBox="0 0 34 35" fill="none" xmlns="http://www.w3.org/2000/svg">
<g clip-path="url(#clip0_211_2072)">
<path d="M30.0806 9.03286C30.0806 9.35723 30.3468 9.62017 30.6752 9.62017H31.2697C31.5981 9.62017 31.8643 9.35723 31.8643 9.03286C31.8643 8.7085 31.5981 8.44556 31.2697 8.44556H30.6752C30.3468 8.44556 30.0806 8.7085 30.0806 9.03286Z" fill="#212326"/>
<path d="M12.8384 27.2394H15.7267L14.8858 26.4088C14.6628 26.1886 14.3604 26.0648 14.045 26.0648H12.8384C8.24126 26.0648 4.51456 22.3836 4.51456 17.8425C4.51456 13.3014 8.24126 9.62018 12.8384 9.62017H22.3513C26.9485 9.62017 30.6752 13.3014 30.6752 17.8425C30.6752 22.3836 26.9485 26.0648 22.3513 26.0648H18.7927C18.3197 26.0648 17.866 25.8792 17.5315 25.5488L16.5464 24.5757C15.9889 24.025 15.2327 23.7156 14.4443 23.7156H12.8384C9.55471 23.7156 6.8928 21.0861 6.8928 17.8425C6.8928 14.5989 9.55471 11.9694 12.8384 11.9694H22.3513C25.635 11.9694 28.2969 14.5989 28.2969 17.8425C28.2969 21.0861 25.635 23.7156 22.3513 23.7156H20.0664C19.5933 23.7156 19.1396 23.5299 18.8051 23.1995L17.82 22.2264C17.2625 21.6757 16.5063 21.3663 15.7179 21.3663H12.8384C10.8682 21.3663 9.27103 19.7886 9.27103 17.8425C9.27103 15.8963 10.8682 14.3186 12.8384 14.3186H22.3513C24.3215 14.3186 25.9187 15.8963 25.9187 17.8425C25.9187 19.7649 24.3602 21.3278 22.4233 21.3656L22.4229 21.3663H21.5528C21.0797 21.3663 20.626 21.1807 20.2915 20.8503L19.3064 19.8772C18.849 19.4253 18.2578 19.1359 17.6247 19.0466L17.5949 19.0171H12.8384C12.1817 19.0171 11.6493 18.4912 11.6493 17.8425C11.6493 17.1938 12.1817 16.6679 12.8384 16.6679H22.3513C23.0081 16.6679 23.5405 17.1938 23.5405 17.8425C23.5405 18.4912 23.0081 19.0171 22.3513 19.0171H19.9731L20.814 19.8477C21.0369 20.068 21.3394 20.1917 21.6548 20.1917H22.3513C23.6648 20.1917 24.7296 19.1399 24.7296 17.8425C24.7296 16.5451 23.6648 15.4933 22.3513 15.4933H12.8384C11.5249 15.4933 10.4602 16.5451 10.4602 17.8425C10.4602 19.1399 11.5249 20.1917 12.8384 20.1917H17.2043C17.6774 20.1917 18.1311 20.3774 18.4656 20.7078L19.4507 21.6809C20.0082 22.2316 20.7643 22.541 21.5528 22.541H22.6486V22.5319C25.1371 22.3804 27.1078 20.3387 27.1078 17.8425C27.1078 15.2476 24.9782 13.144 22.3513 13.144H12.8384C10.2115 13.144 8.08191 15.2476 8.08191 17.8425C8.08191 20.4374 10.2115 22.541 12.8384 22.541H15.7179C16.191 22.541 16.6447 22.7266 16.9792 23.057L17.9643 24.0301C18.5218 24.5808 19.2779 24.8902 20.0664 24.8902H22.3513C26.2917 24.8902 29.4861 21.7348 29.4861 17.8425C29.4861 13.9501 26.2917 10.7948 22.3513 10.7948H12.8384C8.89798 10.7948 5.70368 13.9501 5.70368 17.8425C5.70368 21.7348 8.89798 24.8902 12.8384 24.8902H14.4443C14.9173 24.8902 15.371 25.0758 15.7055 25.4062L16.6907 26.3793C17.2482 26.93 18.0043 27.2394 18.7927 27.2394H22.3513C27.6052 27.2394 31.8643 23.0323 31.8643 17.8425C31.8643 12.6527 27.6052 8.44556 22.3513 8.44556L12.8384 8.44556C7.58453 8.44556 3.32544 12.6527 3.32544 17.8425C3.32544 23.0323 7.58453 27.2394 12.8384 27.2394Z" fill="#212326"/>
</g>
<defs>
<clipPath id="clip0_211_2072">
<rect width="28.5388" height="18.7939" fill="white" transform="translate(3.32544 8.44556)"/>
</clipPath>
</defs>
</svg>
