<svg width="34" height="35" viewBox="0 0 34 35" fill="none" xmlns="http://www.w3.org/2000/svg">
<g clip-path="url(#clip0_211_2046)">
<path fill-rule="evenodd" clip-rule="evenodd" d="M9.97907 3.67969C13.8233 3.67969 16.9398 6.79609 16.9398 10.6404V3.67969H23.9005C27.7447 3.67969 30.8612 6.79609 30.8612 10.6404C30.8612 14.4846 27.7447 17.6011 23.9005 17.6011C27.7447 17.6011 30.8612 20.7175 30.8612 24.5618C30.8612 26.4706 30.0928 28.2 28.8485 29.4575L28.8224 29.4837L28.7993 29.5067C27.5415 30.7528 25.8109 31.5225 23.9005 31.5225C22.003 31.5225 20.2829 30.7633 19.0273 29.5321C19.011 29.516 18.9947 29.4999 18.9785 29.4837C18.9632 29.4685 18.9481 29.4532 18.933 29.4378C17.7001 28.182 16.9398 26.4606 16.9398 24.5618C16.9398 28.406 13.8233 31.5225 9.97907 31.5225C6.13478 31.5225 3.01837 28.406 3.01837 24.5618V17.6011H9.97907C6.13478 17.6011 3.01837 14.4846 3.01837 10.6404C3.01837 6.79609 6.13478 3.67969 9.97907 3.67969ZM15.5476 10.6404C15.5476 13.7158 13.0545 16.2089 9.97907 16.2089V5.07183C13.0545 5.07183 15.5476 7.56495 15.5476 10.6404ZM29.469 24.5618C29.469 21.4863 26.9759 18.9932 23.9005 18.9932C20.825 18.9932 18.3319 21.4863 18.3319 24.5618H29.469ZM4.41051 18.9932V24.5618C4.41051 27.6372 6.90364 30.1303 9.97907 30.1303C13.0545 30.1303 15.5476 27.6372 15.5476 24.5618V18.9932H4.41051ZM18.3319 16.2089V5.07183H23.9005C26.9759 5.07183 29.469 7.56495 29.469 10.6404C29.469 13.7158 26.9759 16.2089 23.9005 16.2089H18.3319Z" fill="#263238"/>
</g>
<defs>
<clipPath id="clip0_211_2046">
<rect width="27.8428" height="27.8428" fill="white" transform="translate(3.01837 3.67969)"/>
</clipPath>
</defs>
</svg>
